<?xml version="1.0" encoding="UTF-8" standalone="no"?>
<svg
   xmlns:dc="http://purl.org/dc/elements/1.1/"
   xmlns:cc="http://creativecommons.org/ns#"
   xmlns:rdf="http://www.w3.org/1999/02/22-rdf-syntax-ns#"
   xmlns:svg="http://www.w3.org/2000/svg"
   xmlns="http://www.w3.org/2000/svg"
   xmlns:sodipodi="http://sodipodi.sourceforge.net/DTD/sodipodi-0.dtd"
   xmlns:inkscape="http://www.inkscape.org/namespaces/inkscape"
   id="Layer_1"
   data-name="Layer 1"
   viewBox="0 0 1375 310"
   version="1.1"
   sodipodi:docname="accessyourdata.svg"
   inkscape:version="0.92.4 (f8dce91, 2019-08-02)"
   width="36.380207cm"
   height="8.2020836cm">
  <metadata
     id="metadata4732">
    <rdf:RDF>
      <cc:Work
         rdf:about="">
        <dc:format>image/svg+xml</dc:format>
        <dc:type
           rdf:resource="http://purl.org/dc/dcmitype/StillImage" />
        <dc:title>TrackingExposed</dc:title>
      </cc:Work>
    </rdf:RDF>
  </metadata>
  <sodipodi:namedview
     pagecolor="#ffffff"
     bordercolor="#666666"
     borderopacity="1"
     objecttolerance="10"
     gridtolerance="10"
     guidetolerance="10"
     inkscape:pageopacity="0"
     inkscape:pageshadow="2"
     inkscape:window-width="1920"
     inkscape:window-height="1025"
     id="namedview4730"
     showgrid="false"
     inkscape:zoom="0.36750954"
     inkscape:cx="392.44189"
     inkscape:cy="227.11052"
     inkscape:window-x="0"
     inkscape:window-y="27"
     inkscape:window-maximized="1"
     inkscape:current-layer="layer4"
     units="cm" />
  <defs
     id="defs4667">
    <style
       id="style4665">.cls-1{fill:#3b5998;}.cls-2{fill:#1b1b1b;}</style>
  </defs>
  <title
     id="title4669">TrackingExposed</title>
  <g
     inkscape:groupmode="layer"
     id="layer4"
     inkscape:label="pornhub"
     style="display:inline">
    <path
       inkscape:connector-curvature="0"
       id="path828"
       style="font-style:normal;font-variant:normal;font-weight:bold;font-stretch:normal;font-size:60.22922897px;line-height:0;font-family:'Simplon Norm';-inkscape-font-specification:'Simplon Norm Bold';letter-spacing:0px;word-spacing:0px;fill:#fa9900;fill-opacity:0.99607843;stroke:none;stroke-width:2.30462909"
       d="M 435.83859,103.66117 H 414.18485 L 425.01172,72.1522 Z m 6.38507,17.62836 6.9403,19.57165 H 468.5968 L 433.89531,43.696963 h -17.76717 l -34.70152,97.164217 h 19.43284 l 6.9403,-19.57165 z" />
    <path
       inkscape:connector-curvature="0"
       id="path830"
       style="font-style:normal;font-variant:normal;font-weight:bold;font-stretch:normal;font-size:60.22922897px;line-height:0;font-family:'Simplon Norm';-inkscape-font-specification:'Simplon Norm Bold';letter-spacing:0px;word-spacing:0px;fill:#fa9900;fill-opacity:0.99607843;stroke:none;stroke-width:2.30462909"
       d="m 518.86412,114.76566 c -0.97165,6.80149 -5.69105,10.96568 -13.32539,10.96568 -8.74477,0 -13.60298,-5.55225 -13.60298,-14.01941 V 97.831311 c 0,-8.467161 4.85821,-14.019405 13.60298,-14.019405 7.63434,0 12.21493,4.302996 13.32539,10.965679 h 18.32238 c -1.94326,-16.795538 -13.04775,-27.483596 -31.64777,-27.483596 -20.5433,0 -31.92538,13.047768 -31.92538,32.897031 v 9.1612 c 0,19.84926 11.38208,32.89704 31.92538,32.89704 18.60002,0 29.70451,-10.68807 31.64777,-27.4836 z" />
    <path
       inkscape:connector-curvature="0"
       id="path832"
       style="font-style:normal;font-variant:normal;font-weight:bold;font-stretch:normal;font-size:60.22922897px;line-height:0;font-family:'Simplon Norm';-inkscape-font-specification:'Simplon Norm Bold';letter-spacing:0px;word-spacing:0px;fill:#fa9900;fill-opacity:0.99607843;stroke:none;stroke-width:2.30462909"
       d="m 593.41814,114.76566 c -0.97166,6.80149 -5.69106,10.96568 -13.32539,10.96568 -8.74478,0 -13.60298,-5.55225 -13.60298,-14.01941 V 97.831311 c 0,-8.467161 4.8582,-14.019405 13.60298,-14.019405 7.63433,0 12.21492,4.302996 13.32539,10.965679 h 18.3224 c -1.94329,-16.795538 -13.04778,-27.483596 -31.64779,-27.483596 -20.54328,0 -31.92538,13.047768 -31.92538,32.897031 v 9.1612 c 0,19.84926 11.3821,32.89704 31.92538,32.89704 18.60001,0 29.7045,-10.68807 31.64779,-27.4836 z" />
    <path
       inkscape:connector-curvature="0"
       id="path834"
       style="font-style:normal;font-variant:normal;font-weight:bold;font-stretch:normal;font-size:60.22922897px;line-height:0;font-family:'Simplon Norm';-inkscape-font-specification:'Simplon Norm Bold';letter-spacing:0px;word-spacing:0px;fill:#fa9900;fill-opacity:0.99607843;stroke:none;stroke-width:2.30462909"
       d="m 686.57217,111.29551 v -11.10449 c 0,-19.849263 -11.38211,-32.897031 -31.92539,-32.897031 -20.5433,0 -31.92538,13.047768 -31.92538,32.897031 v 9.1612 c 0,19.84926 11.38208,32.89704 31.92538,32.89704 17.48956,0 28.31643,-9.43882 31.23135,-24.42988 h -18.6 c -1.80447,4.85821 -6.24628,7.91196 -12.63135,7.91196 -8.74477,0 -13.603,-5.55225 -13.603,-14.01941 v -0.41642 z M 654.64678,83.811906 c 8.18955,0 12.90897,4.719397 13.46418,12.214926 v 0.138739 h -27.06718 v -0.138739 c 0.69404,-7.356721 5.41344,-12.214926 13.603,-12.214926 z" />
    <path
       inkscape:connector-curvature="0"
       id="path836"
       style="font-style:normal;font-variant:normal;font-weight:bold;font-stretch:normal;font-size:60.22922897px;line-height:0;font-family:'Simplon Norm';-inkscape-font-specification:'Simplon Norm Bold';letter-spacing:0px;word-spacing:0px;fill:#fa9900;fill-opacity:0.99607843;stroke:none;stroke-width:2.30462909"
       d="m 726.94736,142.24926 c 14.99105,0 27.9,-6.10748 27.9,-22.07017 0,-14.85225 -9.5776,-20.265685 -17.35075,-22.070164 l -16.1015,-3.608957 c -3.05372,-0.694016 -5.55224,-2.220901 -5.55224,-5.274627 0.13874,-3.331342 3.19253,-5.413436 8.46716,-5.413436 4.58061,0 8.60599,2.082094 9.57762,6.662683 h 18.73883 c -1.24927,-16.240306 -13.18658,-23.1806 -27.76122,-23.1806 -14.71344,0 -27.34479,8.050756 -27.34479,22.070161 0,14.0194 9.85524,20.12688 17.62836,21.93136 l 14.99106,3.33134 c 4.30299,0.97163 6.38509,2.6373 6.38509,5.55224 0,4.7194 -5.41344,5.55225 -9.02239,5.55225 -5.96867,0 -12.49255,-2.49852 -13.32539,-8.05077 h -18.3224 c 0.69404,16.93435 16.2403,24.56869 31.09256,24.56869 z" />
    <path
       inkscape:connector-curvature="0"
       id="path838"
       style="font-style:normal;font-variant:normal;font-weight:bold;font-stretch:normal;font-size:60.22922897px;line-height:0;font-family:'Simplon Norm';-inkscape-font-specification:'Simplon Norm Bold';letter-spacing:0px;word-spacing:0px;fill:#fa9900;fill-opacity:0.99607843;stroke:none;stroke-width:2.30462909"
       d="m 792.28382,142.24926 c 14.99104,0 27.9,-6.10748 27.9,-22.07017 0,-14.85225 -9.57762,-20.265685 -17.35074,-22.070164 l -16.1015,-3.608957 c -3.05375,-0.694016 -5.55225,-2.220901 -5.55225,-5.274627 0.13874,-3.331342 3.19254,-5.413436 8.46717,-5.413436 4.58061,0 8.60596,2.082094 9.57762,6.662683 h 18.7388 c -1.24925,-16.240306 -13.18656,-23.1806 -27.76119,-23.1806 -14.71345,0 -27.3448,8.050756 -27.3448,22.070161 0,14.0194 9.85524,20.12688 17.62836,21.93136 l 14.99106,3.33134 c 4.30298,0.97163 6.38507,2.6373 6.38507,5.55224 0,4.7194 -5.41343,5.55225 -9.02239,5.55225 -5.96864,0 -12.49254,-2.49852 -13.32537,-8.05077 h -18.3224 c 0.69404,16.93435 16.24031,24.56869 31.09256,24.56869 z" />
    <path
       inkscape:connector-curvature="0"
       id="path840"
       style="font-style:normal;font-variant:normal;font-weight:bold;font-stretch:normal;font-size:60.22922897px;line-height:0;font-family:'Simplon Norm';-inkscape-font-specification:'Simplon Norm Bold';letter-spacing:0px;word-spacing:0px;fill:#fa9900;fill-opacity:0.99607843;stroke:none;stroke-width:2.30462909"
       d="M 922.55328,69.237275 H 903.25922 L 887.29653,114.90446 871.33384,69.237275 h -19.29403 l 25.54032,71.623905 -2.0821,5.82986 c -0.55523,1.52686 -1.52686,3.19253 -4.85823,3.19253 h -7.63431 v 16.51792 h 13.60298 c 12.77016,0 13.8806,-7.91193 17.76717,-18.7388 z" />
    <path
       inkscape:connector-curvature="0"
       id="path842"
       style="font-style:normal;font-variant:normal;font-weight:bold;font-stretch:normal;font-size:60.22922897px;line-height:0;font-family:'Simplon Norm';-inkscape-font-specification:'Simplon Norm Bold';letter-spacing:0px;word-spacing:0px;fill:#fa9900;fill-opacity:0.99607843;stroke:none;stroke-width:2.30462909"
       d="m 927.17289,109.35222 c 0,19.84926 11.3821,32.89704 31.9254,32.89704 20.54328,0 31.92538,-13.04778 31.92538,-32.89704 v -9.1612 c 0,-19.849263 -11.3821,-32.897031 -31.92538,-32.897031 -20.5433,0 -31.9254,13.047768 -31.9254,32.897031 z m 45.52838,2.35971 c 0,8.46716 -4.8582,14.01941 -13.60298,14.01941 -8.74478,0 -13.603,-5.55225 -13.603,-14.01941 V 97.831311 c 0,-8.467161 4.85822,-14.019405 13.603,-14.019405 8.74478,0 13.60298,5.552244 13.60298,14.019405 z" />
    <path
       inkscape:connector-curvature="0"
       id="path844"
       style="font-style:normal;font-variant:normal;font-weight:bold;font-stretch:normal;font-size:60.22922897px;line-height:0;font-family:'Simplon Norm';-inkscape-font-specification:'Simplon Norm Bold';letter-spacing:0px;word-spacing:0px;fill:#fa9900;fill-opacity:0.99607843;stroke:none;stroke-width:2.30462909"
       d="m 1036.1118,124.34328 c -6.6627,0 -13.1866,-4.303 -13.1866,-13.88062 V 69.237275 h -18.3224 V 111.1567 c 0,21.51493 14.0194,31.09256 27.3448,31.09256 8.7448,0 14.297,-4.303 17.3508,-9.1612 v 7.77312 h 18.3223 V 69.237275 h -18.3223 v 41.225385 c 0,9.57762 -6.5239,13.88062 -13.1866,13.88062 z" />
    <path
       inkscape:connector-curvature="0"
       id="path846"
       style="font-style:normal;font-variant:normal;font-weight:bold;font-stretch:normal;font-size:60.22922897px;line-height:0;font-family:'Simplon Norm';-inkscape-font-specification:'Simplon Norm Bold';letter-spacing:0px;word-spacing:0px;fill:#fa9900;fill-opacity:0.99607843;stroke:none;stroke-width:2.30462909"
       d="m 1102.5175,99.774597 c 0,-9.716408 6.6627,-13.880597 13.603,-13.880597 h 8.606 V 67.988021 h -5.5523 c -8.4672,0 -14.5746,4.302987 -16.6567,9.022395 v -7.773141 h -18.3224 v 71.623905 h 18.3224 z" />
    <g
       id="g3727"
       transform="matrix(1.8933454,0,0,1.8933454,-0.365572,-2.4354919)">
      <g
         transform="translate(-0.04724485,0.0420391)"
         id="layer1-6"
         inkscape:label="Layer 1" />
      <g
         inkscape:label="Layer 2"
         id="layer3">
        <path
           class="cls-1"
           inkscape:connector-curvature="0"
           style="display:inline;fill:#1b1b1b;fill-opacity:1;stroke-width:0.53727108"
           id="path21020-6"
           d="M 166.12824,83.438205 A 82.520316,79.105413 0 0 0 89.402699,4.5326949 V 15.663636 c 36.414741,2.83534 65.141551,32.1461 65.141551,67.774569 0,35.628555 -28.72681,64.939315 -65.141551,67.774655 v 11.13095 A 82.520316,79.105413 0 0 0 166.12825,83.438205 Z" />
        <path
           class="cls-1"
           inkscape:connector-curvature="0"
           style="display:inline;fill:#1b1b1b;fill-opacity:1;stroke-width:0.53727108"
           id="path21022-2"
           d="m 12.677104,83.438205 c 0,-35.628469 28.72682,-64.939229 65.141562,-67.774569 V 4.5326949 a 82.514829,79.100153 0 0 0 0,157.8111051 V 151.21286 C 41.403924,148.37752 12.677104,119.06675 12.677104,83.438205 Z" />
        <path
           sodipodi:nodetypes="aaaaaaaaa"
           inkscape:connector-curvature="0"
           id="path893"
           d="M 69.35926,106.20093 C 58.123775,102.54607 40.061122,114.76742 33.947921,104.65689 29.172778,96.759342 44.463316,88.743787 45.730218,79.602228 47.195396,69.029962 32.522102,55.105901 40.497492,48.012755 c 11.081765,-9.855891 27.914526,12.365463 42.745022,12.34342 16.612802,-0.0247 37.451676,-26.932671 47.840706,-13.969115 11.47159,14.314381 -21.81699,30.477389 -26.56203,48.196964 -2.97351,11.104106 9.50518,29.141686 -0.67574,34.479436 -12.215048,6.40421 -21.370593,-18.59608 -34.48619,-22.86253 z"
           style="display:inline;fill:#f98e05;fill-opacity:1;stroke:#1b1b1b;stroke-width:10.7670002;stroke-linecap:butt;stroke-linejoin:miter;stroke-miterlimit:4;stroke-dasharray:none;stroke-opacity:1" />
      </g>
    </g>
    <g
       aria-label="data porn"
       transform="matrix(2.2970663,0,0,2.2970663,-347.44472,-225.64386)"
       style="font-style:normal;font-weight:normal;font-size:40px;line-height:1.25;font-family:sans-serif;letter-spacing:0px;word-spacing:0px;fill:#000000;fill-opacity:1;stroke:none"
       id="flowRoot865">
      <path
         d="m 337.97987,211.98902 v 3.136 h 8.448 v -44.8 h -8.448 v 14.656 c -1.47199,-2.24 -4.8,-3.776 -7.74399,-3.776 -6.72001,0 -13.24801,4.608 -13.24801,14.336 v 5.888 c 0,9.728 6.528,14.336 13.24801,14.336 2.94399,0 6.272,-1.536 7.74399,-3.776 z m -12.544,-16.128 c 0,-4.48 3.07201,-6.4 6.272,-6.4 3.2,0 6.272,1.92 6.272,6.4 v 5.248 c 0,4.48 -3.072,6.4 -6.272,6.4 -3.19999,0 -6.272,-1.92 -6.272,-6.4 z"
         style="font-style:normal;font-variant:normal;font-weight:bold;font-stretch:normal;font-size:64px;font-family:'Simplon Norm';-inkscape-font-specification:'Simplon Norm Bold'"
         id="path873" />
      <path
         d="m 374.04088,193.68502 c -4.99201,0.384 -11.584,0.896 -14.848,2.432 -4.60801,2.176 -6.272,5.056 -6.272,9.856 0,6.08 4.47999,9.792 12.03199,9.792 5.056,0 7.68001,-1.92 9.21601,-4.416 v 3.776 h 8.44799 v -18.752 c 0,-9.152 -5.248,-15.168 -14.71999,-15.168 -8.06401,0 -12.99201,4.352 -14.33601,11.264 h 8.512 c 0.832,-2.24 2.88,-3.648 5.82401,-3.648 3.45599,0 5.56799,1.856 6.144,4.8 z m -10.88001,8.512 c 1.6,-0.832 6.208,-1.216 11.00801,-1.536 v 1.088 c 0,4.16 -3.45601,6.592 -7.808,6.592 -3.77601,0 -4.99201,-1.728 -4.99201,-3.328 0,-1.408 0.38401,-2.112 1.792,-2.816 z"
         style="font-style:normal;font-variant:normal;font-weight:bold;font-stretch:normal;font-size:64px;font-family:'Simplon Norm';-inkscape-font-specification:'Simplon Norm Bold'"
         id="path875" />
      <path
         d="m 402.30287,207.50902 c -2.04799,0 -2.432,-1.088 -2.432,-2.624 v -15.168 h 8.128 v -7.616 h -8.128 v -7.488 h -8.448 v 7.488 h -4.672 v 7.616 h 4.672 v 16.96 c 0,5.312 2.56,8.448 8.448,8.448 h 8.128 v -7.616 z"
         style="font-style:normal;font-variant:normal;font-weight:bold;font-stretch:normal;font-size:64px;font-family:'Simplon Norm';-inkscape-font-specification:'Simplon Norm Bold'"
         id="path877" />
      <path
         d="m 433.29088,193.68502 c -4.99201,0.384 -11.584,0.896 -14.848,2.432 -4.60801,2.176 -6.272,5.056 -6.272,9.856 0,6.08 4.47999,9.792 12.03199,9.792 5.056,0 7.68001,-1.92 9.21601,-4.416 v 3.776 h 8.44799 v -18.752 c 0,-9.152 -5.248,-15.168 -14.71999,-15.168 -8.06401,0 -12.99201,4.352 -14.33601,11.264 h 8.512 c 0.832,-2.24 2.88,-3.648 5.82401,-3.648 3.45599,0 5.56799,1.856 6.144,4.8 z m -10.88001,8.512 c 1.6,-0.832 6.208,-1.216 11.00801,-1.536 v 1.088 c 0,4.16 -3.45601,6.592 -7.808,6.592 -3.77601,0 -4.99201,-1.728 -4.99201,-3.328 0,-1.408 0.38401,-2.112 1.792,-2.816 z"
         style="font-style:normal;font-variant:normal;font-weight:bold;font-stretch:normal;font-size:64px;font-family:'Simplon Norm';-inkscape-font-specification:'Simplon Norm Bold'"
         id="path879" />
      <path
         d="m 471.08487,211.98902 c 1.472,2.24 4.80001,3.776 7.744,3.776 6.72,0 13.248,-4.608 13.248,-14.336 v -5.888 c 0,-9.728 -6.528,-14.336 -13.248,-14.336 -2.94399,0 -6.272,1.536 -7.744,3.776 v -2.88 h -8.448 v 44.8 h 8.448 z m 12.544,-10.88 c 0,4.48 -3.072,6.4 -6.272,6.4 -3.19999,0 -6.272,-1.92 -6.272,-6.4 v -5.248 c 0,-4.48 3.07201,-6.4 6.272,-6.4 3.2,0 6.272,1.92 6.272,6.4 z"
         style="font-style:normal;font-variant:normal;font-weight:bold;font-stretch:normal;font-size:64px;font-family:'Simplon Norm';-inkscape-font-specification:'Simplon Norm Bold'"
         id="path881" />
      <path
         d="m 497.73787,200.59702 c 0,9.152 5.24801,15.168 14.72001,15.168 9.472,0 14.71999,-6.016 14.71999,-15.168 v -4.224 c 0,-9.152 -5.24799,-15.168 -14.71999,-15.168 -9.472,0 -14.72001,6.016 -14.72001,15.168 z m 20.992,1.088 c 0,3.904 -2.24,6.464 -6.27199,6.464 -4.032,0 -6.27201,-2.56 -6.27201,-6.464 v -6.4 c 0,-3.904 2.24001,-6.464 6.27201,-6.464 4.03199,0 6.27199,2.56 6.27199,6.464 z"
         style="font-style:normal;font-variant:normal;font-weight:bold;font-stretch:normal;font-size:64px;font-family:'Simplon Norm';-inkscape-font-specification:'Simplon Norm Bold'"
         id="path883" />
      <path
         d="m 542.33487,196.18102 c 0,-4.48 3.07201,-6.4 6.272,-6.4 h 3.96801 v -8.256 h -2.56001 c -3.904,0 -6.71999,1.984 -7.68,4.16 v -3.584 h -8.44799 v 33.024 h 8.44799 z"
         style="font-style:normal;font-variant:normal;font-weight:bold;font-stretch:normal;font-size:64px;font-family:'Simplon Norm';-inkscape-font-specification:'Simplon Norm Bold'"
         id="path885" />
      <path
         d="m 586.57687,195.54102 c 0,-9.728 -6.528,-14.336 -13.24799,-14.336 -2.94401,0 -6.27201,1.536 -7.74401,3.776 v -2.88 h -8.44799 v 33.024 h 8.44799 v -19.264 c 0,-4.48 3.07201,-6.4 6.272,-6.4 3.2,0 6.272,1.92 6.272,6.4 v 19.264 h 8.448 z"
         style="font-style:normal;font-variant:normal;font-weight:bold;font-stretch:normal;font-size:64px;font-family:'Simplon Norm';-inkscape-font-specification:'Simplon Norm Bold'"
         id="path887" />
    </g>
  </g>
</svg>
