<?xml version="1.0" encoding="UTF-8" standalone="no"?>
<svg
   xmlns:dc="http://purl.org/dc/elements/1.1/"
   xmlns:cc="http://creativecommons.org/ns#"
   xmlns:rdf="http://www.w3.org/1999/02/22-rdf-syntax-ns#"
   xmlns:svg="http://www.w3.org/2000/svg"
   xmlns="http://www.w3.org/2000/svg"
   xmlns:sodipodi="http://sodipodi.sourceforge.net/DTD/sodipodi-0.dtd"
   xmlns:inkscape="http://www.inkscape.org/namespaces/inkscape"
   id="Layer_1"
   data-name="Layer 1"
   viewBox="0 0 1375 310"
   version="1.1"
   sodipodi:docname="accessyourdata2.svg"
   inkscape:version="0.92.4 (f8dce91, 2019-08-02)"
   width="36.380207cm"
   height="8.2020836cm">
  <metadata
     id="metadata4732">
    <rdf:RDF>
      <cc:Work
         rdf:about="">
        <dc:format>image/svg+xml</dc:format>
        <dc:type
           rdf:resource="http://purl.org/dc/dcmitype/StillImage" />
        <dc:title>TrackingExposed</dc:title>
      </cc:Work>
    </rdf:RDF>
  </metadata>
  <sodipodi:namedview
     pagecolor="#ffffff"
     bordercolor="#666666"
     borderopacity="1"
     objecttolerance="10"
     gridtolerance="10"
     guidetolerance="10"
     inkscape:pageopacity="0"
     inkscape:pageshadow="2"
     inkscape:window-width="1920"
     inkscape:window-height="1025"
     id="namedview4730"
     showgrid="false"
     inkscape:zoom="0.36750954"
     inkscape:cx="-773.99976"
     inkscape:cy="227.11052"
     inkscape:window-x="0"
     inkscape:window-y="27"
     inkscape:window-maximized="1"
     inkscape:current-layer="layer4"
     units="cm" />
  <defs
     id="defs4667">
    <style
       id="style4665">.cls-1{fill:#3b5998;}.cls-2{fill:#1b1b1b;}</style>
  </defs>
  <title
     id="title4669">TrackingExposed</title>
  <g
     inkscape:groupmode="layer"
     id="layer4"
     inkscape:label="pornhub"
     style="display:inline">
    <g
       aria-label="Access your 
Personal data "
       transform="matrix(2.3046291,0,0,2.3046291,-118.86768,-157.21918)"
       style="font-style:normal;font-weight:normal;font-size:40px;line-height:1.25;font-family:sans-serif;letter-spacing:0px;word-spacing:0px;fill:#fa9900;fill-opacity:0.99607843;stroke:none"
       id="flowRoot3729">
      <path
         d="m 240.69221,113.19841 h -9.39576 l 4.69788,-13.672035 z m 2.77054,7.64911 3.01146,8.49232 h 8.43209 L 239.849,87.179383 h -7.70934 l -15.05731,42.160457 h 8.43209 l 3.01146,-8.49232 z"
         style="font-style:normal;font-variant:normal;font-weight:bold;font-stretch:normal;font-size:60.22922897px;line-height:0;font-family:'Simplon Norm';-inkscape-font-specification:'Simplon Norm Bold';fill:#fa9900;fill-opacity:0.99607843"
         id="path828" />
      <path
         d="m 276.71776,118.01675 c -0.42161,2.95123 -2.4694,4.75811 -5.78201,4.75811 -3.79444,0 -5.90246,-2.40917 -5.90246,-6.08315 v -6.02293 c 0,-3.67398 2.10802,-6.08315 5.90246,-6.08315 3.31261,0 5.30017,1.86711 5.78201,4.75811 h 7.95025 c -0.8432,-7.28774 -5.66154,-11.925388 -13.73226,-11.925388 -8.91393,0 -13.85272,5.661548 -13.85272,14.274328 v 3.97513 c 0,8.61278 4.93879,14.27433 13.85272,14.27433 8.07072,0 12.88906,-4.63765 13.73226,-11.92539 z"
         style="font-style:normal;font-variant:normal;font-weight:bold;font-stretch:normal;font-size:60.22922897px;line-height:0;font-family:'Simplon Norm';-inkscape-font-specification:'Simplon Norm Bold';fill:#fa9900;fill-opacity:0.99607843"
         id="path830" />
      <path
         d="m 309.06744,118.01675 c -0.42161,2.95123 -2.4694,4.75811 -5.78201,4.75811 -3.79444,0 -5.90246,-2.40917 -5.90246,-6.08315 v -6.02293 c 0,-3.67398 2.10802,-6.08315 5.90246,-6.08315 3.31261,0 5.30017,1.86711 5.78201,4.75811 h 7.95026 c -0.84321,-7.28774 -5.66155,-11.925388 -13.73227,-11.925388 -8.91392,0 -13.85272,5.661548 -13.85272,14.274328 v 3.97513 c 0,8.61278 4.9388,14.27433 13.85272,14.27433 8.07072,0 12.88906,-4.63765 13.73227,-11.92539 z"
         style="font-style:normal;font-variant:normal;font-weight:bold;font-stretch:normal;font-size:60.22922897px;line-height:0;font-family:'Simplon Norm';-inkscape-font-specification:'Simplon Norm Bold';fill:#fa9900;fill-opacity:0.99607843"
         id="path832" />
      <path
         d="m 349.48784,116.51102 v -4.81834 c 0,-8.61278 -4.9388,-14.274328 -13.85272,-14.274328 -8.91393,0 -13.85272,5.661548 -13.85272,14.274328 v 3.97513 c 0,8.61278 4.93879,14.27433 13.85272,14.27433 7.58888,0 12.28676,-4.09559 13.55157,-10.60035 h -8.07071 c -0.78298,2.10802 -2.71032,3.43307 -5.48086,3.43307 -3.79444,0 -5.90247,-2.40917 -5.90247,-6.08315 v -0.18069 z m -13.85272,-11.92539 c 3.55352,0 5.60132,2.04779 5.84223,5.30017 v 0.0602 h -11.7447 v -0.0602 c 0.30115,-3.19215 2.34894,-5.30017 5.90247,-5.30017 z"
         style="font-style:normal;font-variant:normal;font-weight:bold;font-stretch:normal;font-size:60.22922897px;line-height:0;font-family:'Simplon Norm';-inkscape-font-specification:'Simplon Norm Bold';fill:#fa9900;fill-opacity:0.99607843"
         id="path834" />
      <path
         d="m 367.00701,129.94214 c 6.50476,0 12.10607,-2.65009 12.10607,-9.57645 0,-6.44453 -4.15581,-8.79347 -7.52865,-9.57645 l -6.98659,-1.56596 c -1.32504,-0.30114 -2.40917,-0.96367 -2.40917,-2.28871 0.0602,-1.4455 1.38527,-2.34894 3.67398,-2.34894 1.98757,0 3.73422,0.90344 4.15582,2.891 h 8.13095 c -0.54207,-7.04682 -5.72178,-10.058278 -12.04585,-10.058278 -6.3843,0 -11.86516,3.493298 -11.86516,9.576448 0,6.08315 4.27628,8.73324 7.64911,9.51622 l 6.50476,1.4455 c 1.86711,0.4216 2.77055,1.14435 2.77055,2.40917 0,2.04779 -2.34894,2.40917 -3.9149,2.40917 -2.58986,0 -5.42063,-1.08413 -5.78201,-3.4933 h -7.95026 c 0.30115,7.34797 7.04682,10.66058 13.49135,10.66058 z"
         style="font-style:normal;font-variant:normal;font-weight:bold;font-stretch:normal;font-size:60.22922897px;line-height:0;font-family:'Simplon Norm';-inkscape-font-specification:'Simplon Norm Bold';fill:#fa9900;fill-opacity:0.99607843"
         id="path836" />
      <path
         d="m 395.35711,129.94214 c 6.50475,0 12.10607,-2.65009 12.10607,-9.57645 0,-6.44453 -4.15582,-8.79347 -7.52865,-9.57645 l -6.98659,-1.56596 c -1.32505,-0.30114 -2.40917,-0.96367 -2.40917,-2.28871 0.0602,-1.4455 1.38527,-2.34894 3.67398,-2.34894 1.98757,0 3.73421,0.90344 4.15582,2.891 h 8.13094 c -0.54206,-7.04682 -5.72177,-10.058278 -12.04584,-10.058278 -6.3843,0 -11.86516,3.493298 -11.86516,9.576448 0,6.08315 4.27628,8.73324 7.64911,9.51622 l 6.50476,1.4455 c 1.8671,0.4216 2.77054,1.14435 2.77054,2.40917 0,2.04779 -2.34894,2.40917 -3.9149,2.40917 -2.58985,0 -5.42063,-1.08413 -5.782,-3.4933 h -7.95026 c 0.30115,7.34797 7.04682,10.66058 13.49135,10.66058 z"
         style="font-style:normal;font-variant:normal;font-weight:bold;font-stretch:normal;font-size:60.22922897px;line-height:0;font-family:'Simplon Norm';-inkscape-font-specification:'Simplon Norm Bold';fill:#fa9900;fill-opacity:0.99607843"
         id="path838" />
      <path
         d="m 451.88224,98.261562 h -8.37187 l -6.92636,19.815418 -6.92636,-19.815418 h -8.37186 l 11.08218,31.078278 -0.90344,2.52963 c -0.24092,0.66252 -0.66252,1.38527 -2.10803,1.38527 h -3.3126 v 7.16728 h 5.90246 c 5.54109,0 6.02292,-3.43306 7.70934,-8.13094 z"
         style="font-style:normal;font-variant:normal;font-weight:bold;font-stretch:normal;font-size:60.22922897px;line-height:0;font-family:'Simplon Norm';-inkscape-font-specification:'Simplon Norm Bold';fill:#fa9900;fill-opacity:0.99607843"
         id="path840" />
      <path
         d="m 453.88673,115.66781 c 0,8.61278 4.9388,14.27433 13.85273,14.27433 8.91392,0 13.85272,-5.66155 13.85272,-14.27433 v -3.97513 c 0,-8.61278 -4.9388,-14.274328 -13.85272,-14.274328 -8.91393,0 -13.85273,5.661548 -13.85273,14.274328 z m 19.75519,1.0239 c 0,3.67398 -2.10802,6.08315 -5.90246,6.08315 -3.79444,0 -5.90247,-2.40917 -5.90247,-6.08315 v -6.02293 c 0,-3.67398 2.10803,-6.08315 5.90247,-6.08315 3.79444,0 5.90246,2.40917 5.90246,6.08315 z"
         style="font-style:normal;font-variant:normal;font-weight:bold;font-stretch:normal;font-size:60.22922897px;line-height:0;font-family:'Simplon Norm';-inkscape-font-specification:'Simplon Norm Bold';fill:#fa9900;fill-opacity:0.99607843"
         id="path842" />
      <path
         d="m 501.15633,122.17257 c -2.891,0 -5.72178,-1.86711 -5.72178,-6.02293 V 98.261562 h -7.95026 v 18.189228 c 0,9.33553 6.08316,13.49135 11.86516,13.49135 3.79444,0 6.20361,-1.86711 7.52866,-3.97513 v 3.37283 h 7.95025 V 98.261562 h -7.95025 v 17.888078 c 0,4.15582 -2.83078,6.02293 -5.72178,6.02293 z"
         style="font-style:normal;font-variant:normal;font-weight:bold;font-stretch:normal;font-size:60.22922897px;line-height:0;font-family:'Simplon Norm';-inkscape-font-specification:'Simplon Norm Bold';fill:#fa9900;fill-opacity:0.99607843"
         id="path844" />
      <path
         d="m 529.97038,111.51199 c 0,-4.21604 2.89101,-6.02292 5.90247,-6.02292 h 3.73421 v -7.769571 h -2.40917 c -3.67398,0 -6.32407,1.867106 -7.22751,3.914901 v -3.372838 h -7.95025 v 31.078278 h 7.95025 z"
         style="font-style:normal;font-variant:normal;font-weight:bold;font-stretch:normal;font-size:60.22922897px;line-height:0;font-family:'Simplon Norm';-inkscape-font-specification:'Simplon Norm Bold';fill:#fa9900;fill-opacity:0.99607843"
         id="path846" />
      <path
         d="m 229.12819,158.38007 v -13.1902 h 9.15485 c 4.45696,0 6.50475,3.31261 6.50475,6.56499 0,3.25238 -2.04779,6.62521 -6.50475,6.62521 z m 0,8.01049 h 9.15485 c 9.99805,0 14.57547,-6.98659 14.57547,-14.6357 0,-7.70934 -4.57742,-14.57548 -14.57547,-14.57548 h -17.22556 v 42.16046 h 8.07071 z"
         style="font-style:normal;font-variant:normal;font-weight:bold;font-stretch:normal;font-size:60.22922897px;line-height:0;font-family:'Simplon Norm';-inkscape-font-specification:'Simplon Norm Bold';fill:#1b1b1b;fill-opacity:1"
         id="path848" />
      <path
         d="m 284.08266,166.51102 v -4.81834 c 0,-8.61278 -4.93879,-14.27433 -13.85272,-14.27433 -8.91393,0 -13.85272,5.66155 -13.85272,14.27433 v 3.97513 c 0,8.61278 4.93879,14.27433 13.85272,14.27433 7.58888,0 12.28676,-4.09559 13.55158,-10.60035 h -8.07072 c -0.78298,2.10802 -2.71032,3.43307 -5.48086,3.43307 -3.79444,0 -5.90246,-2.40917 -5.90246,-6.08315 v -0.18069 z m -13.85272,-11.92539 c 3.55352,0 5.60132,2.04779 5.84223,5.30017 v 0.0602 h -11.74469 v -0.0602 c 0.30114,-3.19215 2.34894,-5.30017 5.90246,-5.30017 z"
         style="font-style:normal;font-variant:normal;font-weight:bold;font-stretch:normal;font-size:60.22922897px;line-height:0;font-family:'Simplon Norm';-inkscape-font-specification:'Simplon Norm Bold';fill:#1b1b1b;fill-opacity:1"
         id="path850" />
      <path
         d="m 298.22901,161.51199 c 0,-4.21604 2.891,-6.02292 5.90246,-6.02292 h 3.73421 v -7.76957 h -2.40917 c -3.67398,0 -6.32407,1.8671 -7.2275,3.9149 v -3.37284 h -7.95026 v 31.07828 h 7.95026 z"
         style="font-style:normal;font-variant:normal;font-weight:bold;font-stretch:normal;font-size:60.22922897px;line-height:0;font-family:'Simplon Norm';-inkscape-font-specification:'Simplon Norm Bold';fill:#1b1b1b;fill-opacity:1"
         id="path852" />
      <path
         d="m 323.83489,179.94214 c 6.50476,0 12.10607,-2.65009 12.10607,-9.57645 0,-6.44453 -4.15581,-8.79347 -7.52865,-9.57645 l -6.98659,-1.56596 c -1.32504,-0.30114 -2.40917,-0.96367 -2.40917,-2.28871 0.0602,-1.4455 1.38527,-2.34894 3.67398,-2.34894 1.98757,0 3.73422,0.90344 4.15582,2.891 h 8.13095 c -0.54207,-7.04682 -5.72178,-10.05828 -12.04585,-10.05828 -6.3843,0 -11.86516,3.4933 -11.86516,9.57645 0,6.08315 4.27628,8.73324 7.64912,9.51622 l 6.50475,1.4455 c 1.86711,0.4216 2.77055,1.14435 2.77055,2.40917 0,2.04779 -2.34894,2.40917 -3.9149,2.40917 -2.58986,0 -5.42063,-1.08413 -5.78201,-3.4933 h -7.95026 c 0.30115,7.34797 7.04682,10.66058 13.49135,10.66058 z"
         style="font-style:normal;font-variant:normal;font-weight:bold;font-stretch:normal;font-size:60.22922897px;line-height:0;font-family:'Simplon Norm';-inkscape-font-specification:'Simplon Norm Bold';fill:#1b1b1b;fill-opacity:1"
         id="path854" />
      <path
         d="m 340.25112,165.66781 c 0,8.61278 4.9388,14.27433 13.85272,14.27433 8.91393,0 13.85273,-5.66155 13.85273,-14.27433 v -3.97513 c 0,-8.61278 -4.9388,-14.27433 -13.85273,-14.27433 -8.91392,0 -13.85272,5.66155 -13.85272,14.27433 z m 19.75519,1.0239 c 0,3.67398 -2.10802,6.08315 -5.90247,6.08315 -3.79444,0 -5.90246,-2.40917 -5.90246,-6.08315 v -6.02293 c 0,-3.67398 2.10802,-6.08315 5.90246,-6.08315 3.79445,0 5.90247,2.40917 5.90247,6.08315 z"
         style="font-style:normal;font-variant:normal;font-weight:bold;font-stretch:normal;font-size:60.22922897px;line-height:0;font-family:'Simplon Norm';-inkscape-font-specification:'Simplon Norm Bold';fill:#1b1b1b;fill-opacity:1"
         id="path856" />
      <path
         d="m 401.97572,160.9097 c 0,-9.15484 -6.14338,-13.49135 -12.46745,-13.49135 -2.77054,0 -5.90246,1.4455 -7.28773,3.55353 v -2.71032 h -7.95026 v 31.07828 h 7.95026 v -18.12899 c 0,-4.21605 2.891,-6.02293 5.90246,-6.02293 3.01146,0 5.90247,1.80688 5.90247,6.02293 v 18.12899 h 7.95025 z"
         style="font-style:normal;font-variant:normal;font-weight:bold;font-stretch:normal;font-size:60.22922897px;line-height:0;font-family:'Simplon Norm';-inkscape-font-specification:'Simplon Norm Bold';fill:#1b1b1b;fill-opacity:1"
         id="path858" />
      <path
         d="m 427.4687,159.16305 c -4.69788,0.36138 -10.90149,0.84321 -13.97318,2.28871 -4.3365,2.0478 -5.90246,4.75811 -5.90246,9.2753 0,5.72178 4.21604,9.21508 11.32309,9.21508 4.75811,0 7.22751,-1.80688 8.67301,-4.15582 v 3.55352 h 7.95026 v -17.64716 c 0,-8.61278 -4.9388,-14.27433 -13.85272,-14.27433 -7.58889,0 -12.22654,4.09559 -13.49135,10.60035 h 8.01049 c 0.78298,-2.10803 2.71031,-3.43307 5.48086,-3.43307 3.25237,0 5.23994,1.74665 5.782,4.51719 z m -10.23897,8.01049 c 1.50573,-0.78298 5.84224,-1.14436 10.35943,-1.4455 v 1.02389 c 0,3.9149 -3.25238,6.20362 -7.34797,6.20362 -3.55352,0 -4.69788,-1.62619 -4.69788,-3.13192 0,-1.32505 0.36138,-1.98757 1.68642,-2.65009 z"
         style="font-style:normal;font-variant:normal;font-weight:bold;font-stretch:normal;font-size:60.22922897px;line-height:0;font-family:'Simplon Norm';-inkscape-font-specification:'Simplon Norm Bold';fill:#1b1b1b;fill-opacity:1"
         id="path860" />
      <path
         d="m 452.49958,172.17257 c -1.92733,0 -2.28871,-1.0239 -2.28871,-2.4694 v -32.52379 h -7.95026 v 34.21021 c 0,4.99902 2.40917,7.95025 7.95026,7.95025 h 3.85467 v -7.16727 z"
         style="font-style:normal;font-variant:normal;font-weight:bold;font-stretch:normal;font-size:60.22922897px;line-height:0;font-family:'Simplon Norm';-inkscape-font-specification:'Simplon Norm Bold';fill:#1b1b1b;fill-opacity:1"
         id="path862" />
      <path
         d="m 490.81667,176.38861 v 2.95123 h 7.95025 v -42.16046 h -7.95025 v 13.7925 c -1.38528,-2.10803 -4.5172,-3.55353 -7.28774,-3.55353 -6.32407,0 -12.46745,4.33651 -12.46745,13.49135 v 5.54109 c 0,9.15484 6.14338,13.49135 12.46745,13.49135 2.77054,0 5.90246,-1.44551 7.28774,-3.55353 z m -11.80493,-15.17776 c 0,-4.21605 2.891,-6.02293 5.90246,-6.02293 3.01146,0 5.90247,1.80688 5.90247,6.02293 v 4.93879 c 0,4.21605 -2.89101,6.02293 -5.90247,6.02293 -3.01146,0 -5.90246,-1.80688 -5.90246,-6.02293 z"
         style="font-style:normal;font-variant:normal;font-weight:bold;font-stretch:normal;font-size:60.22922897px;line-height:0;font-family:'Simplon Norm';-inkscape-font-specification:'Simplon Norm Bold';fill:#1b1b1b;fill-opacity:1"
         id="path864" />
      <path
         d="m 524.753,159.16305 c -4.69788,0.36138 -10.90149,0.84321 -13.97318,2.28871 -4.3365,2.0478 -5.90246,4.75811 -5.90246,9.2753 0,5.72178 4.21604,9.21508 11.32309,9.21508 4.75811,0 7.22751,-1.80688 8.67301,-4.15582 v 3.55352 h 7.95026 v -17.64716 c 0,-8.61278 -4.9388,-14.27433 -13.85272,-14.27433 -7.58889,0 -12.22654,4.09559 -13.49135,10.60035 h 8.01049 c 0.78298,-2.10803 2.71031,-3.43307 5.48086,-3.43307 3.25238,0 5.23994,1.74665 5.782,4.51719 z m -10.23897,8.01049 c 1.50573,-0.78298 5.84224,-1.14436 10.35943,-1.4455 v 1.02389 c 0,3.9149 -3.25238,6.20362 -7.34796,6.20362 -3.55353,0 -4.69788,-1.62619 -4.69788,-3.13192 0,-1.32505 0.36137,-1.98757 1.68641,-2.65009 z"
         style="font-style:normal;font-variant:normal;font-weight:bold;font-stretch:normal;font-size:60.22922897px;line-height:0;font-family:'Simplon Norm';-inkscape-font-specification:'Simplon Norm Bold';fill:#1b1b1b;fill-opacity:1"
         id="path866" />
      <path
         d="m 551.34986,172.17257 c -1.92734,0 -2.28871,-1.0239 -2.28871,-2.4694 v -14.27433 h 7.64911 v -7.16728 h -7.64911 v -7.04682 h -7.95026 v 7.04682 h -4.39673 v 7.16728 h 4.39673 v 15.96075 c 0,4.99902 2.40917,7.95025 7.95026,7.95025 h 7.64911 v -7.16727 z"
         style="font-style:normal;font-variant:normal;font-weight:bold;font-stretch:normal;font-size:60.22922897px;line-height:0;font-family:'Simplon Norm';-inkscape-font-specification:'Simplon Norm Bold';fill:#1b1b1b;fill-opacity:1"
         id="path868" />
      <path
         d="m 580.5121,159.16305 c -4.69788,0.36138 -10.90149,0.84321 -13.97318,2.28871 -4.33651,2.0478 -5.90247,4.75811 -5.90247,9.2753 0,5.72178 4.21605,9.21508 11.3231,9.21508 4.75811,0 7.2275,-1.80688 8.67301,-4.15582 v 3.55352 h 7.95025 v -17.64716 c 0,-8.61278 -4.93879,-14.27433 -13.85272,-14.27433 -7.58888,0 -12.22653,4.09559 -13.49135,10.60035 h 8.01049 c 0.78298,-2.10803 2.71032,-3.43307 5.48086,-3.43307 3.25238,0 5.23994,1.74665 5.78201,4.51719 z m -10.23897,8.01049 c 1.50573,-0.78298 5.84223,-1.14436 10.35943,-1.4455 v 1.02389 c 0,3.9149 -3.25238,6.20362 -7.34797,6.20362 -3.55352,0 -4.69788,-1.62619 -4.69788,-3.13192 0,-1.32505 0.36138,-1.98757 1.68642,-2.65009 z"
         style="font-style:normal;font-variant:normal;font-weight:bold;font-stretch:normal;font-size:60.22922897px;line-height:0;font-family:'Simplon Norm';-inkscape-font-specification:'Simplon Norm Bold';fill:#1b1b1b;fill-opacity:1"
         id="path870" />
    </g>
    <g
       id="g3727"
       transform="matrix(1.8933454,0,0,1.8933454,-0.365572,-2.4354919)">
      <g
         transform="translate(-0.04724485,0.0420391)"
         id="layer1-6"
         inkscape:label="Layer 1" />
      <g
         inkscape:label="Layer 2"
         id="layer3">
        <path
           class="cls-1"
           inkscape:connector-curvature="0"
           style="display:inline;fill:#1b1b1b;fill-opacity:1;stroke-width:0.53727108"
           id="path21020-6"
           d="M 166.12824,83.438205 A 82.520316,79.105413 0 0 0 89.402699,4.5326949 V 15.663636 c 36.414741,2.83534 65.141551,32.1461 65.141551,67.774569 0,35.628555 -28.72681,64.939315 -65.141551,67.774655 v 11.13095 A 82.520316,79.105413 0 0 0 166.12825,83.438205 Z" />
        <path
           class="cls-1"
           inkscape:connector-curvature="0"
           style="display:inline;fill:#1b1b1b;fill-opacity:1;stroke-width:0.53727108"
           id="path21022-2"
           d="m 12.677104,83.438205 c 0,-35.628469 28.72682,-64.939229 65.141562,-67.774569 V 4.5326949 a 82.514829,79.100153 0 0 0 0,157.8111051 V 151.21286 C 41.403924,148.37752 12.677104,119.06675 12.677104,83.438205 Z" />
        <path
           sodipodi:nodetypes="aaaaaaaaa"
           inkscape:connector-curvature="0"
           id="path893"
           d="M 69.35926,106.20093 C 58.123775,102.54607 40.061122,114.76742 33.947921,104.65689 29.172778,96.759342 44.463316,88.743787 45.730218,79.602228 47.195396,69.029962 32.522102,55.105901 40.497492,48.012755 c 11.081765,-9.855891 27.914526,12.365463 42.745022,12.34342 16.612802,-0.0247 37.451676,-26.932671 47.840706,-13.969115 11.47159,14.314381 -21.81699,30.477389 -26.56203,48.196964 -2.97351,11.104106 9.50518,29.141686 -0.67574,34.479436 -12.215048,6.40421 -21.370593,-18.59608 -34.48619,-22.86253 z"
           style="display:inline;fill:#f98e05;fill-opacity:1;stroke:#1b1b1b;stroke-width:10.7670002;stroke-linecap:butt;stroke-linejoin:miter;stroke-miterlimit:4;stroke-dasharray:none;stroke-opacity:1" />
      </g>
    </g>
  </g>
</svg>
