<?xml version="1.0" encoding="UTF-8" standalone="no"?>
<svg
   xmlns:dc="http://purl.org/dc/elements/1.1/"
   xmlns:cc="http://creativecommons.org/ns#"
   xmlns:rdf="http://www.w3.org/1999/02/22-rdf-syntax-ns#"
   xmlns:svg="http://www.w3.org/2000/svg"
   xmlns="http://www.w3.org/2000/svg"
   xmlns:sodipodi="http://sodipodi.sourceforge.net/DTD/sodipodi-0.dtd"
   xmlns:inkscape="http://www.inkscape.org/namespaces/inkscape"
   id="Layer_1"
   data-name="Layer 1"
   viewBox="0 0 1375 310"
   version="1.1"
   sodipodi:docname="header-logo-pornhub-w.svg"
   inkscape:version="0.92.3 (2405546, 2018-03-11)"
   width="36.380207cm"
   height="8.2020836cm">
  <metadata
     id="metadata4732">
    <rdf:RDF>
      <cc:Work
         rdf:about="">
        <dc:format>image/svg+xml</dc:format>
        <dc:type
           rdf:resource="http://purl.org/dc/dcmitype/StillImage" />
        <dc:title>TrackingExposed</dc:title>
      </cc:Work>
    </rdf:RDF>
  </metadata>
  <sodipodi:namedview
     pagecolor="#ffffff"
     bordercolor="#666666"
     borderopacity="1"
     objecttolerance="10"
     gridtolerance="10"
     guidetolerance="10"
     inkscape:pageopacity="0"
     inkscape:pageshadow="2"
     inkscape:window-width="1871"
     inkscape:window-height="1025"
     id="namedview4730"
     showgrid="false"
     inkscape:zoom="0.36750954"
     inkscape:cx="183.7985"
     inkscape:cy="227.11052"
     inkscape:window-x="49"
     inkscape:window-y="27"
     inkscape:window-maximized="1"
     inkscape:current-layer="layer4"
     units="cm" />
  <defs
     id="defs4667">
    <style
       id="style4665">.cls-1{fill:#3b5998;}.cls-2{fill:#1b1b1b;}</style>
  </defs>
  <title
     id="title4669">TrackingExposed</title>
  <g
     inkscape:groupmode="layer"
     id="layer4"
     inkscape:label="pornhub"
     style="display:inline">
    <path
       inkscape:connector-curvature="0"
       class="cls-1"
       d="m 381.10086,139.48425 h -18.8 v -98 h 40 c 23.1,0 33.88,16 33.88,33.88 0,17.88 -10.78,34 -33.88,34 h -21.2 z m 21.28,-48.72 c 10.36,0 15.12,-7.84 15.12,-15.4 0,-7.56 -4.76,-15.26 -15.12,-15.26 h -21.28 v 30.66 z"
       id="path14995"
       style="fill:#fa9900;fill-opacity:1" />
    <path
       inkscape:connector-curvature="0"
       class="cls-1"
       d="m 440.04086,98.46425 c 0,-20 11.47,-33.18 32.19,-33.18 20.72,0 32.2,13.16 32.2,33.18 v 9.24 c 0,20 -11.47,33.18 -32.2,33.18 -20.73,0 -32.19,-13.16 -32.19,-33.18 z m 45.92,-2.38 c 0,-8.54 -4.77,-14.14 -13.73,-14.14 -8.96,0 -13.72,5.6 -13.72,14.14 v 14 c 0,8.54 4.76,14.14 13.72,14.14 8.96,0 13.73,-5.6 13.73,-14.14 z"
       id="path14997"
       style="fill:#fa9900;fill-opacity:1" />
    <path
       inkscape:connector-curvature="0"
       class="cls-1"
       d="m 532.03086,139.48425 h -18.48 v -72.24 h 18.48 v 7.84 c 2.1,-4.9 8.26,-9.1 16.8,-9.1 h 5.6 v 18.06 h -8.68 c -7,0 -13.72,4.34 -13.72,14 z"
       id="path14999"
       style="fill:#fa9900;fill-opacity:1" />
    <path
       inkscape:connector-curvature="0"
       class="cls-1"
       d="m 624.66086,139.48425 h -18.48 v -42.14 c 0,-9.66 -6.72,-14 -13.72,-14 -7,0 -13.72,4.34 -13.72,14 v 42.14 h -18.44 v -72.24 h 18.48 v 6.3 c 3.36,-4.9 10.36,-8.26 16.94,-8.26 14.7,0 29,10.08 29,31.36 z"
       id="path15001"
       style="fill:#fa9900;fill-opacity:1" />
    <path
       inkscape:connector-curvature="0"
       class="cls-1"
       d="m 699.86086,139.48425 h -18.48 v -42.14 c 0,-9.66 -6.72,-14 -13.72,-14 -7,0 -13.72,4.34 -13.72,14 v 42.14 h -18.48 v -98 h 18.48 v 32.06 c 3.36,-4.9 10.36,-8.26 16.94,-8.26 14.7,0 29,10.08 29,31.36 z"
       id="path15003"
       style="fill:#fa9900;fill-opacity:1" />
    <path
       inkscape:connector-curvature="0"
       class="cls-1"
       d="m 754.55086,108.82425 v -41.58 h 18.48 v 72.24 h -18.48 v -7.84 c -3.22,4.9 -8.54,9.24 -17.5,9.24 -13.44,0 -27.58,-9.52 -27.58,-31.36 v -42.28 h 18.48 v 41.58 c 0,9.66 6.58,14 13.3,14 6.72,0 13.3,-4.34 13.3,-14 z"
       id="path15005"
       style="fill:#fa9900;fill-opacity:1" />
    <path
       inkscape:connector-curvature="0"
       class="cls-1"
       d="m 802.93086,139.48425 h -18.47 v -98 h 18.47 v 32.06 c 3.37,-4.9 10.37,-8.26 16.94,-8.26 14.7,0 29,10.08 29,31.36 v 12.88 c 0,21.28 -14.28,31.36 -29,31.36 -6.57,0 -13.57,-3.36 -16.94,-8.26 z m 27.44,-42.14 c 0,-9.66 -6.72,-14 -13.72,-14 -7,0 -13.72,4.34 -13.72,14 v 11.48 c 0,9.66 6.72,14 13.72,14 7,0 13.72,-4.34 13.72,-14 z"
       id="path15007"
       style="fill:#fa9900;fill-opacity:1" />
    <path
       inkscape:connector-curvature="0"
       class="cls-2"
       d="m 403.44086,180.43425 v 79.38 h -19.32 v -79.38 h -27.3 v -18.62 h 73.92 v 18.62 z"
       id="path15009"
       style="fill:#ffffff" />
    <path
       inkscape:connector-curvature="0"
       class="cls-2"
       d="m 440.20086,259.81425 h -18.48 v -72.24 h 18.48 v 7.84 c 2.1,-4.9 8.26,-9.1 16.8,-9.1 h 5.6 v 18.06 h -8.68 c -7,0 -13.72,4.34 -13.72,14 z"
       id="path15011"
       style="fill:#ffffff" />
    <path
       inkscape:connector-curvature="0"
       class="cls-2"
       d="m 510.89086,212.77425 c -1.26,-6.58 -5.74,-10.5 -13.44,-10.5 -6.58,0 -10.92,3.08 -12.74,8 h -18.62 c 2.94,-15.12 13.44,-24.64 31.36,-24.64 20.72,0 32.2,13.16 32.2,33.18 v 41 h -18.48 v -8.26 c -3.36,5.46 -9,9.66 -20.16,9.66 -16.8,0 -26.32,-8 -26.32,-21.42 0,-10.64 3.64,-16.66 13.72,-21.56 7,-3.22 21.56,-4.62 32.48,-5.32 z m -27.72,24.92 c 0,3.5 2.66,7.28 10.92,7.28 9.52,0 17.08,-5.32 17.08,-14.42 v -2.38 c -10.64,0.7 -20.58,1.54 -24.08,3.36 -3.22,1.54 -3.92,2.94 -3.92,6.16 z"
       id="path15013"
       style="fill:#ffffff" />
    <path
       inkscape:connector-curvature="0"
       class="cls-2"
       d="m 600.62086,233.49425 c -2.1,17.22 -12.88,27.72 -31.92,27.72 -20.72,0 -32.2,-13.16 -32.2,-33.18 v -9.24 c 0,-20 11.48,-33.18 32.2,-33.18 19,0 29.82,10.5 31.92,27.72 h -18.48 c -1.12,-6.72 -5.6,-11.06 -13.44,-11.06 -9,0 -13.72,5.6 -13.72,14.14 v 14 c 0,8.54 4.76,14.14 13.72,14.14 7.84,0 12.46,-4.2 13.44,-11.06 z"
       id="path15015"
       style="fill:#ffffff" />
    <path
       inkscape:connector-curvature="0"
       class="cls-2"
       d="m 625.63086,212.77425 23.1,-25.2 h 22.4 l -26.18,28.42 30,43.82 h -21.7 l -20.72,-30.24 -6.86,7.56 v 22.68 h -18.52 v -98 h 18.48 z"
       id="path15017"
       style="fill:#ffffff" />
    <path
       inkscape:connector-curvature="0"
       class="cls-2"
       d="m 696.82086,178.19425 h -18.52 v -16.38 h 18.48 z m 0,81.62 h -18.52 v -72.24 h 18.48 z"
       id="path15019"
       style="fill:#ffffff" />
    <path
       inkscape:connector-curvature="0"
       class="cls-2"
       d="m 771.09086,259.81425 h -18.48 v -42.14 c 0,-9.66 -6.72,-14 -13.72,-14 -7,0 -13.72,4.34 -13.72,14 v 42.14 h -18.48 v -72.24 h 18.48 v 6.35 c 3.36,-4.9 10.36,-8.26 16.94,-8.26 14.7,0 29,10.08 29,31.36 z"
       id="path15021"
       style="fill:#ffffff" />
    <path
       inkscape:connector-curvature="0"
       class="cls-2"
       d="m 796.53086,260.23425 c 1.54,6.3 5.88,10.08 13.3,10.08 9,0 13.72,-5.6 13.72,-14.14 v -8.4 c -3.36,4.9 -10.36,8.26 -16.94,8.26 -14.7,0 -29,-10.08 -29,-31.36 v -7.7 c 0,-21.28 14.28,-31.36 29,-31.36 6.58,0 13.58,3.36 16.94,8.26 v -6.3 h 18.48 v 66.22 c 0,20 -11.48,33.18 -32.2,33.18 -18.62,0 -29.54,-10.08 -31.78,-26.74 z m -0.42,-36.26 c 0,9.66 6.72,14 13.72,14 7,0 13.72,-4.34 13.72,-14 v -6.3 c 0,-9.66 -6.72,-14 -13.72,-14 -7,0 -13.72,4.34 -13.72,14 z"
       id="path15023"
       style="fill:#ffffff" />
    <path
       inkscape:connector-curvature="0"
       class="cls-2"
       d="m 899.30086,201.01425 h 40.88004 v 18.62 h -40.88004 v 21.56 h 40.88004 v 18.62 h -59.64004 v -98 h 59.64004 v 18.62 h -40.88004 z"
       id="path15025"
       style="fill:#ffffff" />
    <path
       inkscape:connector-curvature="0"
       class="cls-2"
       d="m 991.9209,187.57425 h 21 l -23.38,35.14 24.5,37.1 h -21.14 l -14.28,-22.12 -14.32,22.12 h -21.1 l 24.5,-37.1 -23.4,-35.14 h 21 l 13.3,20.44 z"
       id="path15027"
       style="fill:#ffffff" />
    <path
       inkscape:connector-curvature="0"
       class="cls-2"
       d="m 1036.3009,285.57425 h -18.5 v -98 h 18.5 v 6.35 c 3.36,-4.9 10.36,-8.26 16.94,-8.26 14.7,0 29,10.08 29,31.36 v 12.88 c 0,21.28 -14.28,31.36 -29,31.36 -6.58,0 -13.58,-3.36 -16.94,-8.26 z m 27.44,-67.9 c 0,-9.66 -6.72,-14 -13.72,-14 -7,0 -13.72,4.34 -13.72,14 v 11.48 c 0,9.66 6.72,14 13.72,14 7,0 13.72,-4.34 13.72,-14 z"
       id="path15029"
       style="fill:#ffffff" />
    <path
       inkscape:connector-curvature="0"
       class="cls-2"
       d="m 1087.9809,218.79425 c 0,-20 11.48,-33.18 32.2,-33.18 20.72,0 32.2,13.16 32.2,33.18 v 9.24 c 0,20 -11.48,33.18 -32.2,33.18 -20.72,0 -32.2,-13.16 -32.2,-33.18 z m 45.92,-2.38 c 0,-8.54 -4.77,-14.14 -13.72,-14.14 -8.95,0 -13.72,5.6 -13.72,14.14 v 14 c 0,8.54 4.76,14.14 13.72,14.14 8.96,0 13.72,-5.6 13.72,-14.14 z"
       id="path15031"
       style="fill:#ffffff" />
    <path
       inkscape:connector-curvature="0"
       class="cls-2"
       d="m 1156.4109,236.43425 h 18.48 c 0.7,5.6 7.56,8.12 13.44,8.12 3.64,0 9.1,-0.84 9.1,-5.6 0,-2.8 -2.1,-4.62 -6.44,-5.6 l -15.12,-3.36 c -7.84,-1.82 -17.78,-8 -17.78,-22.12 0,-14.12 12.74,-22.26 27.58,-22.26 14.56,0 26.88,7 28,23.38 h -18.9 c -1,-4.62 -5,-6.72 -9.66,-6.72 -5.46,0 -8.4,2.1 -8.54,5.46 -0.14,3.36 2.38,4.62 5.6,5.32 l 16.24,3.64 c 7.84,1.82 17.5,7.28 17.5,22.26 0,16.24 -13.16,22.26 -28.14,22.26 -14.98,0 -30.66,-7.56 -31.36,-24.78 z"
       id="path15033"
       style="fill:#ffffff" />
    <path
       inkscape:connector-curvature="0"
       class="cls-2"
       d="m 1238.6709,229.99425 v 0.42 c 0,8.54 4.76,14.14 13.72,14.14 6.58,0 10.92,-3.08 12.74,-8 h 18.76 c -2.94,15.12 -13.58,24.64 -31.5,24.64 -20.72,0 -32.2,-13.16 -32.2,-33.18 v -9.24 c 0,-20 11.48,-33.18 32.2,-33.18 20.72,0 32.2,13.16 32.2,33.18 v 11.2 z m 0,-15.4 v 0.14 h 27.3 v -0.14 c -0.56,-7.7 -5.18,-12.32 -13.58,-12.32 -8.4,0 -13.02,4.9 -13.72,12.32 z"
       id="path15035"
       style="fill:#ffffff" />
    <path
       inkscape:connector-curvature="0"
       class="cls-2"
       d="m 1335.9709,252.92425 c -3.36,4.9 -10.36,8.26 -16.94,8.26 -14.7,0 -29,-10.08 -29,-31.36 v -12.85 c 0,-21.28 14.28,-31.36 29,-31.36 6.58,0 13.58,3.36 16.94,8.26 v -32.06 h 18.48 v 98 h -18.48 z m -27.44,-23.8 c 0,9.66 6.72,14 13.72,14 7,0 13.72,-4.34 13.72,-14 v -11.45 c 0,-9.66 -6.72,-14 -13.72,-14 -7,0 -13.72,4.34 -13.72,14 z"
       id="path15037"
       style="fill:#ffffff" />
    <path
       inkscape:connector-curvature="0"
       class="cls-2"
       d="M 304.05086,151.92425 A 150.38,150.38 0 0 0 164.23086,1.924252 V 23.08425 c 66.36,5.39 118.71,61.11 118.71,128.84 0,67.73 -52.35,123.45 -118.71,128.84 v 21.16 a 150.38,150.38 0 0 0 139.82,-150 z"
       id="path15039"
       style="fill:#ffffff" />
    <path
       inkscape:connector-curvature="0"
       class="cls-2"
       d="m 24.41086,151.92425 c 0,-67.73 52.35,-123.45 118.71,-128.84 V 1.924252 a 150.37,150.37 0 0 0 0,299.999998 v -21.16 c -66.36,-5.39 -118.71,-61.11 -118.71,-128.84 z"
       id="path15041"
       style="fill:#ffffff" />
    <path
       inkscape:connector-curvature="0"
       class="cls-2"
       d="m 102.23086,62.82425 a 102.9,102.9 0 0 0 -42.47,131.1 l 18.42,-10.64 a 81.76,81.76 0 0 1 140.43,-81.08 l 18.43,-10.63 a 102.9,102.9 0 0 0 -134.81,-28.75 z"
       id="path15043"
       style="fill:#ffffff" />
    <path
       inkscape:connector-curvature="0"
       class="cls-2"
       d="m 194.57086,222.75425 a 81.91,81.91 0 0 1 -105.84,-21.15 l -18.43,10.63 a 102.9,102.9 0 0 0 177.29,-102.31 l -18.42,10.6 a 81.9,81.9 0 0 1 -34.6,102.23 z"
       id="path15045"
       style="fill:#ffffff" />
    <path
       inkscape:connector-curvature="0"
       class="cls-2"
       d="m 181.37086,103.92425 a 55.41,55.41 0 0 0 -69.52,11.65 l 18.84,10.88 a 34.29,34.29 0 0 1 56.52,32.63 l 18.84,10.87 a 55.41,55.41 0 0 0 -24.68,-66.03 z"
       id="path15047"
       style="fill:#ffffff" />
    <path
       inkscape:connector-curvature="0"
       class="cls-2"
       d="m 136.53086,181.62425 a 34.35,34.35 0 0 1 -16.39,-36.88 l -18.84,-10.82 a 55.4,55.4 0 0 0 94.2,54.38 l -18.85,-10.88 a 34.33,34.33 0 0 1 -40.12,4.2 z"
       id="path15049"
       style="fill:#ffffff" />
  </g>
</svg>
